<svg xmlns="http://www.w3.org/2000/svg" width="161.984" height="161.984" viewBox="0 0 161.984 161.984"><linearGradient id="a" gradientUnits="userSpaceOnUse" x1="80.993" y1="161.984" x2="80.993"><stop offset="0" stop-color="#fbae1c"/><stop offset="1" stop-color="#ffcd1b"/></linearGradient><path fill-rule="evenodd" clip-rule="evenodd" fill="url(#a)" d="M152.644 71.558l9.341 9.435-9.341 9.434 6.581 11.527-11.465 6.694 3.373 12.839-12.806 3.5-.065 13.275-13.274.064-3.499 12.807-12.84-3.373-6.694 11.463-11.529-6.58-9.433 9.341-9.433-9.341-11.529 6.58-6.694-11.463-12.84 3.373-3.499-12.807-13.275-.064-.065-13.275-12.806-3.5 3.373-12.839-11.465-6.694 6.582-11.527L0 80.993l9.341-9.435L2.76 60.03l11.464-6.694-3.373-12.84 12.806-3.498.065-13.276 13.275-.064 3.499-12.807 12.84 3.373L60.03 2.759l11.529 6.583L80.992 0l9.433 9.341 11.529-6.583 6.694 11.465 12.84-3.373 3.499 12.807 13.274.064.065 13.276 12.806 3.498-3.373 12.84 11.465 6.694-6.58 11.529zM80.992 14.991c-36.451 0-66 29.55-66 66.002 0 36.449 29.549 65.998 66 65.998s66-29.549 66-65.998c0-36.451-29.549-66.002-66-66.002zm0 130.002c-35.346 0-64-28.654-64-64 0-35.348 28.654-64 64-64 35.346 0 64 28.652 64 64 0 35.346-28.654 64-64 64zm0-126.001c-34.242 0-62 27.759-62 62.001 0 34.241 27.758 62 62 62 34.241 0 62-27.759 62-62 0-34.242-27.759-62.001-62-62.001zm39.999 82.396l2.231 1.398-2.466 3.934 1.543.967 2.312-3.688 2.013 1.262-2.312 3.688 1.536.963 2.466-3.934 2.231 1.398-4.226 6.742-9.556-5.988 4.228-6.742zm8.166-18.924l-2.161-2.681 3.25-.815 1.756-2.992 1.742 3.001 3.246.831-2.173 2.67.25 3.508-3.085-1.35-3.092 1.332.267-3.504zm-6.852-17.318l-1.824-3.394 2.482-4.129-1.464-.216-2.603 1.398-1.568-2.919 9.934-5.338 1.568 2.918-4.213 2.265.029.055 5.863.806 1.646 3.063-6.17-.898-3.68 6.389zm-2.951-17.301c.88-.935.927-2.127.141-2.963-.932-.99-2.396-.792-3.865.589-1.485 1.397-1.778 2.842-.836 3.843.781.831 1.958.861 2.978.042l2.173 2.311c-2.059 1.916-4.969 1.639-7.051-.575-2.365-2.515-2.29-5.525.419-8.073 2.708-2.548 5.717-2.428 8.077.082 2.039 2.168 2.17 5.134.138 7.056l-2.174-2.312zm-13.12-2.891l.696-2.21-2.91-1.828-1.688 1.586-2.857-1.795 9.111-7.588 3.519 2.211-2.88 11.502-2.991-1.878zm2.635-8.585l-3.097 2.889 1.892 1.188 1.258-4.044-.053-.033zm-10.85-2.412l-.019.059c1.442.493 2.313 1.97 1.867 3.394-.592 1.886-2.473 2.663-4.776 1.941l-5.464-1.714 3.374-10.756 5.284 1.657c2.199.69 3.174 2.101 2.647 3.778-.388 1.237-1.62 1.874-2.913 1.641zm-4.551 2.502l1.35.423c.977.307 1.673.042 1.928-.771.241-.768-.185-1.393-1.132-1.689l-1.371-.43-.775 2.467zm3.28-6.021l-1.268-.397-.67 2.139 1.223.383c.812.255 1.453-.011 1.656-.659.207-.663-.143-1.216-.941-1.466zm-15.029 6.531l-3.314.061-.065-3.572-3.995-7.636 3.541-.065 2.062 4.536.062-.001 1.893-4.609 3.463-.063-3.712 7.777.065 3.572zm-18.745-8.426l7.693-2.03.672 2.546-4.489 1.185.464 1.761 4.209-1.111.606 2.297-4.209 1.111.463 1.753 4.489-1.185.672 2.547-7.693 2.03-2.877-10.904zm-.914 12.608l-6.68-3.116-.055.03 2.835 5.209-2.741 1.492-5.384-9.89 2.255-1.227 6.608 3.048.055-.03-2.791-5.126 2.742-1.492 5.383 9.89-2.227 1.212zm-11.729 8.434c-2.503 2.434-5.624 2.363-8.134-.219-2.51-2.582-2.494-5.714.004-8.143 2.498-2.429 5.629-2.357 8.14.225 2.51 2.582 2.488 5.709-.01 8.137zm-2.41-5.784c-1.361-1.4-2.888-1.648-3.879-.684-.992.964-.787 2.497.575 3.897 1.356 1.395 2.877 1.648 3.874.679.996-.97.786-2.498-.57-3.892zm-4.07 13.169l-5.74-3.107-.03.055 4.416 5.276-.844 1.559-6.832-.813-.03.055 5.74 3.107-1.375 2.54-9.908-5.363 1.821-3.364 6.982.912.03-.055-4.584-5.34 1.821-3.364 9.908 5.363-1.375 2.539zM31.744 78.977l3.246.831-2.173 2.67.25 3.508-3.085-1.35-3.091 1.332.266-3.504-2.161-2.681 3.25-.815 1.756-2.992 1.742 3.001zm4.297 25.374c3.074-2.049 6.017-1.467 7.945 1.426 1.569 2.354 1.354 5.031-.431 6.521l-1.807-2.709c.568-.643.604-1.559.076-2.352-.78-1.17-2.201-1.219-3.872-.104-1.709 1.139-2.206 2.605-1.399 3.814.598.898 1.523 1.201 2.329.775l.139-.072-.953-1.432 1.833-1.221 2.721 4.082-1.235.822c-2.568 1.713-5.233 1.15-7.048-1.572-1.986-2.975-1.412-5.902 1.702-7.978zm11.825 7.109l2.497 2.174-4.522 5.195c-.779.895-.763 1.768.044 2.471s1.674.598 2.454-.297l4.522-5.195 2.497 2.174-4.763 5.471c-1.687 1.939-4.266 1.869-6.509-.086-2.244-1.953-2.669-4.496-.983-6.436l4.763-5.471zm15.12 10.529l-1.721 11.744-3.166-1.572.473-2.271-3.082-1.531-1.523 1.75-3.026-1.504 8.319-8.467 3.726 1.851zm-3.913 5.539l.85-4.154-.056-.027-2.796 3.186 2.002.995zm13.333-2.636c2.949.594 4.187 2.285 3.711 4.652-.262 1.303-1.143 2.432-2.411 2.752l1.256 4.611-3.631-.73-1-4.059-1.065-.215-.746 3.707-3.248-.652 2.224-11.053 4.91.987zm-1.368 5.136c.911.184 1.583-.264 1.751-1.098.165-.82-.306-1.527-1.18-1.703l-1.348-.271-.564 2.803 1.341.269zm14.684-4.504l4.333 11.037-3.523.205-.717-2.203-3.431.201-.453 2.273-3.369.197 3.012-11.467 4.148-.243zm-.645 6.745l-1.323-4.023-.062.004-.844 4.15 2.229-.131zm13.978-3.993l.06-.021-1.883-5.535 2.96-1.008 3.633 10.68-2.405.818-6.064-4.213-.06.021 1.913 5.623-2.96 1.008-3.633-10.68 2.435-.828 6.004 4.135zm2.339-7.201l7.769-5.023 1.43 2.211-2.493 1.613 4.691 7.256-2.781 1.799-4.692-7.258-2.493 1.613-1.431-2.211zm-20.402-.083c-22.091 0-40-17.909-40-39.999 0-22.092 17.909-40.001 40-40.001 22.092 0 40 17.909 40 40.001 0 22.09-17.908 39.999-40 39.999zm0-78c-20.987 0-38 17.014-38 38.001 0 20.986 17.013 37.998 38 37.998 20.986 0 38-17.012 38-37.998 0-20.987-17.013-38.001-38-38.001zm0 73.999c-19.882 0-36-16.117-36-35.998 0-19.884 16.118-36.002 36-36.002s36 16.118 36 36.002c0 19.881-16.118 35.998-36 35.998zm7.746-18.674v4.178h1.98v-4.178l2.503-8.426H91.33l-1.513 5.744-1.513-5.744h-2.07l2.504 8.426zm-18.324 4.178h3.133c1.98 0 2.953-1.098 2.953-3.115v-6.373c0-2.018-.972-3.115-2.953-3.115h-3.133v12.603zm8.683-28.655c0-3.708-1.476-5.759-4.392-5.759-1.764 0-2.987.792-3.671 2.232v-4.607c0-2.412.792-3.096 2.196-3.096 1.26 0 2.052.684 2.052 2.484v.899h3.743v-.647c0-4.032-2.016-6.335-5.903-6.335-4.104 0-6.047 2.304-6.047 6.551v12.887c0 4.031 2.124 6.335 6.011 6.335s6.011-2.304 6.011-6.335V73.84zm1.487 16.052l-2.017 12.604h1.818l.342-2.287h2.43l.343 2.287h1.998l-2.017-12.604h-2.897zM95.98 65.346c0-4.032-2.124-6.335-6.011-6.335-3.888 0-6.012 2.304-6.012 6.335v13.103c0 4.031 2.124 6.335 6.012 6.335 3.887 0 6.011-2.304 6.011-6.335V65.346zm-6.01 15.838c-1.261 0-2.052-.685-2.052-2.484V65.094c0-1.8.791-2.484 2.052-2.484 1.26 0 2.052.684 2.052 2.484V78.7c-.001 1.799-.793 2.484-2.052 2.484zm-8.035 10.94l.954 6.374H80.98l.955-6.374zm-8.85-10.977c-1.26 0-2.052-.648-2.052-2.448v-4.535c0-1.8.792-2.484 2.052-2.484s2.052.684 2.052 2.484V78.7c0 1.799-.792 2.447-2.052 2.447zm1.434 11.769v6.554c0 .9-.378 1.225-1.008 1.225h-1.116v-9.002h1.116c.63-.001 1.008.324 1.008 1.223zm41.194 16.532l1.882 1.846-3.254 3.318 1.302 1.275 3.051-3.109 1.698 1.664-3.052 3.111 1.296 1.271 3.254-3.318 1.882 1.846-5.576 5.686-8.059-7.904 5.576-5.686z"/></svg>